# Blender v2.79 (sub 0) OBJ File: ''
# www.blender.org
mtllib Stadium seats.mtl
o Cylinder
v 0.386818 -0.140002 -0.297035
v 0.386817 0.139998 0.042203
v 0.581908 -0.140002 -0.277820
v 0.515726 0.139998 0.054899
v 0.769501 -0.140002 -0.220914
v 0.639681 0.139998 0.092500
v 0.942388 -0.140002 -0.128504
v 0.753918 0.139998 0.153561
v 1.093924 -0.140002 -0.004142
v 0.854047 0.139998 0.235736
v 1.218287 -0.140002 0.147395
v 0.936222 0.139998 0.335865
v 1.310697 -0.140002 0.320282
v 0.997283 0.139998 0.450102
v 1.367603 -0.140002 0.507875
v 1.034884 0.139998 0.574057
v 1.386818 -0.140002 0.702965
v 1.047580 0.139998 0.702965
v 1.367603 -0.140002 0.898055
v 1.034884 0.139998 0.831874
v 1.310697 -0.140002 1.085649
v 0.997283 0.139998 0.955828
v 1.218287 -0.140002 1.258535
v 0.936222 0.139998 1.070065
v 1.093924 -0.140002 1.410072
v 0.854047 0.139998 1.170195
v 0.942388 -0.140002 1.534435
v 0.753917 0.139998 1.252369
v 0.769501 -0.140002 1.626845
v 0.639680 0.139998 1.313430
v 0.581908 -0.140002 1.683751
v 0.515726 0.139998 1.351031
v 0.386817 -0.140002 1.702965
v 0.386817 0.139998 1.363728
v 0.191727 -0.140002 1.683750
v 0.257909 0.139998 1.351031
v 0.004134 -0.140002 1.626845
v 0.133954 0.139998 1.313430
v -0.168753 -0.140002 1.534435
v 0.019717 0.139998 1.252369
v -0.320290 -0.140002 1.410072
v -0.080412 0.139998 1.170195
v -0.444652 -0.140002 1.258535
v -0.162587 0.139998 1.070065
v -0.537062 -0.140002 1.085648
v -0.223648 0.139998 0.955828
v -0.593968 -0.140002 0.898055
v -0.261249 0.139998 0.831873
v -0.613182 -0.140002 0.702964
v -0.273945 0.139998 0.702965
v -0.593968 -0.140002 0.507874
v -0.261248 0.139998 0.574056
v -0.537062 -0.140002 0.320281
v -0.223647 0.139998 0.450102
v -0.444651 -0.140002 0.147394
v -0.162586 0.139998 0.335865
v -0.320288 -0.140002 -0.004142
v -0.080412 0.139998 0.235735
v -0.168752 -0.140002 -0.128505
v 0.019718 0.139998 0.153561
v 0.004135 -0.140002 -0.220915
v 0.133956 0.139998 0.092500
v 0.191729 -0.140002 -0.277820
v 0.257910 0.139998 0.054899
v 0.581908 0.139998 -0.277820
v 0.386818 0.139998 -0.297035
v 0.769501 0.139998 -0.220914
v 0.942388 0.139998 -0.128504
v 1.093924 0.139998 -0.004142
v 1.218287 0.139998 0.147395
v 1.310697 0.139998 0.320282
v 1.367603 0.139998 0.507875
v 1.386818 0.139998 0.702965
v 1.367603 0.139998 0.898055
v 1.310697 0.139998 1.085649
v 1.218287 0.139998 1.258535
v 1.093924 0.139998 1.410072
v 0.942388 0.139998 1.534435
v 0.769501 0.139998 1.626845
v 0.581908 0.139998 1.683751
v 0.386817 0.139998 1.702965
v 0.191727 0.139998 1.683750
v 0.004134 0.139998 1.626845
v -0.168753 0.139998 1.534435
v -0.320290 0.139998 1.410072
v -0.444652 0.139998 1.258535
v -0.537062 0.139998 1.085648
v -0.593968 0.139998 0.898055
v -0.613182 0.139998 0.702964
v -0.593968 0.139998 0.507874
v -0.537062 0.139998 0.320281
v -0.444651 0.139998 0.147394
v -0.320288 0.139998 -0.004142
v -0.168752 0.139998 -0.128505
v 0.004135 0.139998 -0.220915
v 0.191729 0.139998 -0.277820
v 0.515726 -0.112314 0.054899
v 0.386817 -0.112314 0.042203
v 0.639680 -0.112314 0.092500
v 0.753917 -0.112314 0.153561
v 0.854047 -0.112314 0.235736
v 0.936221 -0.112314 0.335865
v 0.997282 -0.112314 0.450102
v 1.034884 -0.112314 0.574057
v 1.047580 -0.112314 0.702965
v 1.034884 -0.112314 0.831874
v 0.997283 -0.112314 0.955828
v 0.936221 -0.112314 1.070065
v 0.854047 -0.112314 1.170195
v 0.753917 -0.112314 1.252369
v 0.639680 -0.112314 1.313430
v 0.515726 -0.112314 1.351031
v 0.386817 -0.112314 1.363728
v 0.257909 -0.112314 1.351031
v 0.133954 -0.112314 1.313430
v 0.019717 -0.112314 1.252369
v -0.080413 -0.112314 1.170195
v -0.162587 -0.112314 1.070065
v -0.223648 -0.112314 0.955828
v -0.261249 -0.112314 0.831873
v -0.273945 -0.112314 0.702965
v -0.261249 -0.112314 0.574056
v -0.223647 -0.112314 0.450102
v -0.162586 -0.112314 0.335865
v -0.080412 -0.112314 0.235735
v 0.019718 -0.112314 0.153561
v 0.133956 -0.112314 0.092500
v 0.257910 -0.112314 0.054899
vn 0.0980 0.0000 -0.9952
vn 0.2903 0.0000 -0.9569
vn 0.4714 0.0000 -0.8819
vn 0.6344 0.0000 -0.7730
vn 0.7730 0.0000 -0.6344
vn 0.8819 0.0000 -0.4714
vn 0.9569 0.0000 -0.2903
vn 0.9952 0.0000 -0.0980
vn 0.9952 0.0000 0.0980
vn 0.9569 0.0000 0.2903
vn 0.8819 0.0000 0.4714
vn 0.7730 0.0000 0.6344
vn 0.6344 0.0000 0.7730
vn 0.4714 0.0000 0.8819
vn 0.2903 0.0000 0.9569
vn 0.0980 0.0000 0.9952
vn -0.0980 0.0000 0.9952
vn -0.2903 0.0000 0.9569
vn -0.4714 0.0000 0.8819
vn -0.6344 0.0000 0.7730
vn -0.7730 0.0000 0.6344
vn -0.8819 0.0000 0.4714
vn -0.9569 0.0000 0.2903
vn -0.9952 0.0000 0.0980
vn -0.9952 0.0000 -0.0980
vn -0.9569 0.0000 -0.2903
vn -0.8819 0.0000 -0.4714
vn -0.7730 0.0000 -0.6344
vn -0.6344 0.0000 -0.7730
vn -0.4714 0.0000 -0.8819
vn -0.2903 0.0000 -0.9569
vn -0.0980 0.0000 -0.9952
vn 0.0000 -1.0000 -0.0000
vn 0.0000 1.0000 0.0000
usemtl None
s off
f 1//1 66//1 65//1 3//1
f 3//2 65//2 67//2 5//2
f 5//3 67//3 68//3 7//3
f 7//4 68//4 69//4 9//4
f 9//5 69//5 70//5 11//5
f 11//6 70//6 71//6 13//6
f 13//7 71//7 72//7 15//7
f 15//8 72//8 73//8 17//8
f 17//9 73//9 74//9 19//9
f 19//10 74//10 75//10 21//10
f 21//11 75//11 76//11 23//11
f 23//12 76//12 77//12 25//12
f 25//13 77//13 78//13 27//13
f 27//14 78//14 79//14 29//14
f 29//15 79//15 80//15 31//15
f 31//16 80//16 81//16 33//16
f 33//17 81//17 82//17 35//17
f 35//18 82//18 83//18 37//18
f 37//19 83//19 84//19 39//19
f 39//20 84//20 85//20 41//20
f 41//21 85//21 86//21 43//21
f 43//22 86//22 87//22 45//22
f 45//23 87//23 88//23 47//23
f 47//24 88//24 89//24 49//24
f 49//25 89//25 90//25 51//25
f 51//26 90//26 91//26 53//26
f 53//27 91//27 92//27 55//27
f 55//28 92//28 93//28 57//28
f 57//29 93//29 94//29 59//29
f 59//30 94//30 95//30 61//30
f 52//9 50//9 121//9 122//9
f 61//31 95//31 96//31 63//31
f 63//32 96//32 66//32 1//32
f 1//33 3//33 5//33 7//33 9//33 11//33 13//33 15//33 17//33 19//33 21//33 23//33 25//33 27//33 29//33 31//33 33//33 35//33 37//33 39//33 41//33 43//33 45//33 47//33 49//33 51//33 53//33 55//33 57//33 59//33 61//33 63//33
f 2//34 4//34 65//34 66//34
f 4//34 6//34 67//34 65//34
f 6//34 8//34 68//34 67//34
f 8//34 10//34 69//34 68//34
f 10//34 12//34 70//34 69//34
f 12//34 14//34 71//34 70//34
f 14//34 16//34 72//34 71//34
f 16//34 18//34 73//34 72//34
f 18//34 20//34 74//34 73//34
f 20//34 22//34 75//34 74//34
f 22//34 24//34 76//34 75//34
f 24//34 26//34 77//34 76//34
f 26//34 28//34 78//34 77//34
f 28//34 30//34 79//34 78//34
f 30//34 32//34 80//34 79//34
f 32//34 34//34 81//34 80//34
f 34//34 36//34 82//34 81//34
f 36//34 38//34 83//34 82//34
f 38//34 40//34 84//34 83//34
f 40//34 42//34 85//34 84//34
f 42//34 44//34 86//34 85//34
f 44//34 46//34 87//34 86//34
f 46//34 48//34 88//34 87//34
f 48//34 50//34 89//34 88//34
f 50//34 52//34 90//34 89//34
f 52//34 54//34 91//34 90//34
f 54//34 56//34 92//34 91//34
f 56//34 58//34 93//34 92//34
f 58//34 60//34 94//34 93//34
f 60//34 62//34 95//34 94//34
f 62//34 64//34 96//34 95//34
f 64//34 2//34 66//34 96//34
f 97//34 98//34 128//34 127//34 126//34 125//34 124//34 123//34 122//34 121//34 120//34 119//34 118//34 117//34 116//34 115//34 114//34 113//34 112//34 111//34 110//34 109//34 108//34 107//34 106//34 105//34 104//34 103//34 102//34 101//34 100//34 99//34
f 26//28 24//28 108//28 109//28
f 54//10 52//10 122//10 123//10
f 28//29 26//29 109//29 110//29
f 56//11 54//11 123//11 124//11
f 30//30 28//30 110//30 111//30
f 4//17 2//17 98//17 97//17
f 58//12 56//12 124//12 125//12
f 32//31 30//31 111//31 112//31
f 6//18 4//18 97//18 99//18
f 60//13 58//13 125//13 126//13
f 34//32 32//32 112//32 113//32
f 8//19 6//19 99//19 100//19
f 62//14 60//14 126//14 127//14
f 36//1 34//1 113//1 114//1
f 10//20 8//20 100//20 101//20
f 64//15 62//15 127//15 128//15
f 38//2 36//2 114//2 115//2
f 12//21 10//21 101//21 102//21
f 2//16 64//16 128//16 98//16
f 40//3 38//3 115//3 116//3
f 14//22 12//22 102//22 103//22
f 42//4 40//4 116//4 117//4
f 16//23 14//23 103//23 104//23
f 44//5 42//5 117//5 118//5
f 18//24 16//24 104//24 105//24
f 46//6 44//6 118//6 119//6
f 20//25 18//25 105//25 106//25
f 48//7 46//7 119//7 120//7
f 22//26 20//26 106//26 107//26
f 50//8 48//8 120//8 121//8
f 24//27 22//27 107//27 108//27
